<svg width="118" height="40" viewBox="0 0 118 40" fill="none" xmlns="http://www.w3.org/2000/svg">
<path d="M14.9075 10.7557L15.2356 10.895L16.3839 9.76029L16.187 9.39531C16.0427 9.11661 15.8786 8.67864 15.9311 8.14777C15.9639 7.86243 16.0033 7.47754 16.2986 7.17893C16.4757 7.00639 16.7119 6.88032 17.0072 6.8206L17.4534 6.78077C17.4796 6.78077 17.5124 6.77414 17.5518 6.77414C17.5846 6.77414 17.6174 6.77414 17.6502 6.78077L18.0964 6.8206C18.3917 6.88032 18.6279 7.00639 18.805 7.17893C19.1003 7.47754 19.1397 7.86243 19.1725 8.14777C19.225 8.67864 19.0675 9.11661 18.9166 9.39531L18.7197 9.76029L19.868 10.895L20.196 10.7557C21.4361 10.2447 22.4794 9.34886 23.1224 8.23403C23.7786 7.11257 24.0082 5.81194 23.7654 4.5843C23.5096 3.25712 22.7222 2.05603 21.5543 1.20663C20.4126 0.377147 18.9887 -0.0475475 17.5452 0.00553956C16.1017 -0.0541834 14.6779 0.370511 13.5362 1.20663C12.3683 2.05603 11.5875 3.25712 11.325 4.5843C11.0888 5.81194 11.3185 7.10593 11.968 8.23403C12.6242 9.34886 13.6674 10.2381 14.9075 10.7557ZM17.309 1.93658C19.3562 1.84368 21.6724 3.1045 21.8364 5.30098C21.8889 6.03092 21.6855 7.10594 21.1146 7.78943C21.0556 7.23866 20.9112 6.68124 20.4782 6.11719C19.7367 5.14835 18.4179 4.65066 17.0334 4.82319C15.7343 4.98245 14.6845 5.7124 14.2252 6.76087C14.0611 7.13912 14.0152 7.49745 13.9955 7.82925C13.7396 7.55054 13.5821 7.23202 13.4837 6.96658C13.1622 6.10392 13.1885 5.03554 13.5493 4.24587C14.153 2.9386 15.6621 2.00957 17.309 1.93658Z" fill="white"/>
<path d="M34.4671 5.35405L20.0057 12.7066L19.763 12.8327L17.5518 16.728L15.3406 12.8327L0.636458 5.35405L0 6.7144L0.0131236 6.84712C0.0262464 7.00638 0.374 10.7026 1.07607 12.4876C1.75846 14.2329 2.73611 15.7923 3.98278 17.1394C5.22944 18.4865 6.69264 19.5482 8.31331 20.2848C9.71745 20.9218 11.2003 21.3001 12.7226 21.4063L13.031 21.4262L14.0349 19.6079L13.2409 19.5814C11.7909 19.5283 10.3801 19.1965 9.05474 18.5926C7.6506 17.949 6.38425 17.0332 5.30162 15.8653C4.21242 14.6907 3.35944 13.3238 2.76235 11.7975C2.29649 10.603 2.00123 9.34222 1.88313 8.05486L14.0545 14.2461L16.5019 18.5462L7.06008 35.5606L7.21755 35.8128C7.30285 35.9455 7.39471 36.0782 7.49313 36.2043L7.55218 36.2773H7.55874C9.29096 38.4472 12.9653 39.8806 17.0531 39.9934V40H17.5386C17.5452 40 17.5518 40 17.5518 40H18.0504V39.9934C22.1382 39.8806 25.8126 38.4538 27.5448 36.2773H27.5514L27.6104 36.2043C27.7088 36.0782 27.8007 35.9455 27.886 35.8128L28.0435 35.5606L18.6016 18.5462L21.049 14.2461L33.2204 8.05486C33.1023 9.34885 32.8136 10.603 32.3412 11.7975C31.7441 13.3238 30.8911 14.6907 29.8019 15.8653C28.7193 17.0332 27.4529 17.9556 26.0488 18.5926C24.7168 19.1965 23.3127 19.5283 21.8626 19.5814L21.0687 19.6079L22.0726 21.4262L22.381 21.4063C23.9032 21.3001 25.3927 20.9218 26.7902 20.2848C28.4109 19.5416 29.8741 18.4865 31.1208 17.1394C32.3674 15.7923 33.3451 14.2329 34.0275 12.4876C34.7295 10.7026 35.0773 6.99975 35.0904 6.84712L35.1035 6.7144L34.4671 5.35405ZM17.5518 38.142C15.4784 38.142 13.5099 37.777 11.8565 37.1001C10.7476 36.6422 9.84867 36.0583 9.21878 35.408L17.5518 20.391L25.8848 35.408C25.2549 36.0649 24.3559 36.6489 23.2471 37.1001C21.5936 37.777 19.6252 38.142 17.5518 38.142Z" fill="white"/>
<path d="M48.76 3.6H57.01V5.36H50.63V9.76H52.94C53.9373 9.76 54.8247 9.95067 55.602 10.332C56.394 10.6987 57.0173 11.2267 57.472 11.916C57.9413 12.6053 58.176 13.4267 58.176 14.38C58.176 15.3187 57.9413 16.14 57.472 16.844C57.0173 17.5333 56.394 18.0687 55.602 18.45C54.8247 18.8167 53.9373 19 52.94 19H48.76V3.6ZM52.94 11.52H50.63V17.24H52.94C53.9373 17.24 54.744 16.998 55.36 16.514C55.9907 16.03 56.306 15.3187 56.306 14.38C56.306 13.4267 55.9907 12.7153 55.36 12.246C54.744 11.762 53.9373 11.52 52.94 11.52ZM69.5687 8.88V19H67.8087V10.53H62.6387V15.48C62.6387 16.6827 62.3601 17.57 61.8027 18.142C61.2601 18.714 60.4167 19 59.2727 19V17.394C59.7127 17.394 60.0867 17.2547 60.3947 16.976C60.7174 16.6973 60.8787 16.1987 60.8787 15.48V8.88H69.5687ZM73.7623 11.256L72.9043 9.914C73.2856 9.63533 73.799 9.35667 74.4443 9.078C75.0896 8.79933 75.867 8.66 76.7763 8.66C77.935 8.66 78.8736 8.93133 79.5923 9.474C80.311 10.002 80.6703 10.7573 80.6703 11.74V19H78.9103V17.548C78.6023 18.0907 78.1403 18.5087 77.5243 18.802C76.9083 19.0807 76.219 19.22 75.4563 19.22C74.8256 19.22 74.2463 19.1027 73.7183 18.868C73.1903 18.6333 72.765 18.2887 72.4423 17.834C72.1343 17.3647 71.9803 16.7853 71.9803 16.096C71.9803 15.0253 72.3616 14.1967 73.1243 13.61C73.9016 13.0087 74.9576 12.708 76.2923 12.708C76.879 12.708 77.3923 12.7813 77.8323 12.928C78.2723 13.0747 78.6316 13.2433 78.9103 13.434V11.74C78.9103 11.2267 78.6903 10.8453 78.2503 10.596C77.825 10.332 77.3336 10.2 76.7763 10.2C76.0576 10.2 75.4343 10.332 74.9063 10.596C74.393 10.86 74.0116 11.08 73.7623 11.256ZM73.7623 16.03C73.7623 16.5727 73.9676 16.9833 74.3783 17.262C74.8036 17.526 75.3096 17.658 75.8963 17.658C76.7763 17.658 77.495 17.46 78.0523 17.064C78.6243 16.6533 78.9103 15.9787 78.9103 15.04V14.644C78.1623 14.248 77.319 14.05 76.3803 14.05C75.4856 14.05 74.8256 14.226 74.4003 14.578C73.975 14.93 73.7623 15.414 73.7623 16.03ZM83.758 8.88H89.148V10.53H85.518V19H83.758V8.88ZM89.7075 13.94C89.7075 12.9133 89.9348 12.004 90.3895 11.212C90.8588 10.42 91.4895 9.79667 92.2815 9.342C93.0735 8.88733 93.9608 8.66 94.9435 8.66C95.9408 8.66 96.8282 8.88733 97.6055 9.342C98.3975 9.79667 99.0208 10.42 99.4755 11.212C99.9448 12.004 100.18 12.9133 100.18 13.94C100.18 14.952 99.9448 15.8613 99.4755 16.668C99.0208 17.46 98.3975 18.0833 97.6055 18.538C96.8282 18.9927 95.9408 19.22 94.9435 19.22C93.9608 19.22 93.0735 18.9927 92.2815 18.538C91.4895 18.0833 90.8588 17.46 90.3895 16.668C89.9348 15.8613 89.7075 14.952 89.7075 13.94ZM91.4895 13.94C91.4895 14.644 91.6362 15.2673 91.9295 15.81C92.2375 16.3527 92.6482 16.7853 93.1615 17.108C93.6895 17.416 94.2835 17.57 94.9435 17.57C95.6035 17.57 96.1902 17.416 96.7035 17.108C97.2315 16.7853 97.6422 16.3527 97.9355 15.81C98.2435 15.2673 98.3975 14.644 98.3975 13.94C98.3975 13.236 98.2435 12.6127 97.9355 12.07C97.6422 11.5127 97.2315 11.08 96.7035 10.772C96.1902 10.464 95.6035 10.31 94.9435 10.31C94.2835 10.31 93.6895 10.464 93.1615 10.772C92.6482 11.08 92.2375 11.5127 91.9295 12.07C91.6362 12.6127 91.4895 13.236 91.4895 13.94ZM111.331 16.646C110.994 17.1593 110.62 17.614 110.209 18.01C109.799 18.3913 109.3 18.692 108.713 18.912C108.127 19.1173 107.393 19.22 106.513 19.22C105.604 19.22 104.783 18.9927 104.049 18.538C103.331 18.0833 102.759 17.46 102.333 16.668C101.923 15.8613 101.717 14.952 101.717 13.94C101.717 13.7493 101.725 13.566 101.739 13.39C101.754 13.214 101.776 13.038 101.805 12.862C101.952 12.026 102.245 11.2927 102.685 10.662C103.125 10.0313 103.69 9.54 104.379 9.188C105.083 8.836 105.868 8.66 106.733 8.66C107.687 8.66 108.523 8.87267 109.241 9.298C109.96 9.72333 110.517 10.3247 110.913 11.102C111.309 11.8647 111.507 12.7813 111.507 13.852C111.507 13.94 111.507 14.028 111.507 14.116C111.507 14.204 111.5 14.292 111.485 14.38H103.521C103.595 15.4067 103.917 16.1987 104.489 16.756C105.061 17.2987 105.809 17.57 106.733 17.57C107.467 17.57 108.09 17.4013 108.603 17.064C109.131 16.7267 109.564 16.2867 109.901 15.744L111.331 16.646ZM106.733 10.2C105.912 10.2 105.201 10.442 104.599 10.926C103.998 11.3953 103.653 12.048 103.565 12.884H109.593C109.505 12.092 109.227 11.4467 108.757 10.948C108.288 10.4493 107.613 10.2 106.733 10.2ZM58.66 37H49.75V38.98H47.88V35.35H49.684L54.15 26.11L58.616 35.35H60.42V38.98H58.66V37ZM54.15 29.916L51.642 35.35H56.658L54.15 29.916ZM71.8 34.646C71.4627 35.1593 71.0887 35.614 70.678 36.01C70.2673 36.3913 69.7687 36.692 69.182 36.912C68.5953 37.1173 67.862 37.22 66.982 37.22C66.0727 37.22 65.2513 36.9927 64.518 36.538C63.7993 36.0833 63.2273 35.46 62.802 34.668C62.3913 33.8613 62.186 32.952 62.186 31.94C62.186 31.7493 62.1933 31.566 62.208 31.39C62.2227 31.214 62.2447 31.038 62.274 30.862C62.4207 30.026 62.714 29.2927 63.154 28.662C63.594 28.0313 64.1587 27.54 64.848 27.188C65.552 26.836 66.3367 26.66 67.202 26.66C68.1553 26.66 68.9913 26.8727 69.71 27.298C70.4287 27.7233 70.986 28.3247 71.382 29.102C71.778 29.8647 71.976 30.7813 71.976 31.852C71.976 31.94 71.976 32.028 71.976 32.116C71.976 32.204 71.9687 32.292 71.954 32.38H63.99C64.0633 33.4067 64.386 34.1987 64.958 34.756C65.53 35.2987 66.278 35.57 67.202 35.57C67.9353 35.57 68.5587 35.4013 69.072 35.064C69.6 34.7267 70.0327 34.2867 70.37 33.744L71.8 34.646ZM67.202 28.2C66.3807 28.2 65.6693 28.442 65.068 28.926C64.4667 29.3953 64.122 30.048 64.034 30.884H70.062C69.974 30.092 69.6953 29.4467 69.226 28.948C68.7567 28.4493 68.082 28.2 67.202 28.2ZM83.2543 26.88V37H81.4943V28.53H76.3243V33.48C76.3243 34.6827 76.0456 35.57 75.4883 36.142C74.9456 36.714 74.1023 37 72.9583 37V35.394C73.3983 35.394 73.7723 35.2547 74.0803 34.976C74.4029 34.6973 74.5643 34.1987 74.5643 33.48V26.88H83.2543ZM85.7759 31.94C85.7759 30.9133 86.0032 30.004 86.4579 29.212C86.9272 28.42 87.5579 27.7967 88.3499 27.342C89.1419 26.8873 90.0292 26.66 91.0119 26.66C92.0092 26.66 92.8965 26.8873 93.6739 27.342C94.4659 27.7967 95.0892 28.42 95.5439 29.212C96.0132 30.004 96.2479 30.9133 96.2479 31.94C96.2479 32.952 96.0132 33.8613 95.5439 34.668C95.0892 35.46 94.4659 36.0833 93.6739 36.538C92.8965 36.9927 92.0092 37.22 91.0119 37.22C90.0292 37.22 89.1419 36.9927 88.3499 36.538C87.5579 36.0833 86.9272 35.46 86.4579 34.668C86.0032 33.8613 85.7759 32.952 85.7759 31.94ZM87.5579 31.94C87.5579 32.644 87.7045 33.2673 87.9979 33.81C88.3059 34.3527 88.7165 34.7853 89.2299 35.108C89.7579 35.416 90.3519 35.57 91.0119 35.57C91.6719 35.57 92.2585 35.416 92.7719 35.108C93.2999 34.7853 93.7105 34.3527 94.0039 33.81C94.3119 33.2673 94.4659 32.644 94.4659 31.94C94.4659 31.236 94.3119 30.6127 94.0039 30.07C93.7105 29.5127 93.2999 29.08 92.7719 28.772C92.2585 28.464 91.6719 28.31 91.0119 28.31C90.3519 28.31 89.7579 28.464 89.2299 28.772C88.7165 29.08 88.3059 29.5127 87.9979 30.07C87.7045 30.6127 87.5579 31.236 87.5579 31.94Z" fill="white"/>
</svg>
